<svg xmlns="http://www.w3.org/2000/svg" xmlns:xlink="http://www.w3.org/1999/xlink" width="512" zoomAndPan="magnify" viewBox="0 0 384 89.999999" height="120" preserveAspectRatio="xMidYMid meet" version="1.0"><defs><g/><clipPath id="6bbe3f10f8"><path d="M 216 70 L 265 70 L 265 89.828125 L 216 89.828125 Z M 216 70 " clip-rule="nonzero"/></clipPath><clipPath id="43036a1bf6"><path d="M 217 75 L 250 75 L 250 89.828125 L 217 89.828125 Z M 217 75 " clip-rule="nonzero"/></clipPath><clipPath id="0830a8d1c0"><path d="M 225 73 L 261 73 L 261 89.828125 L 225 89.828125 Z M 225 73 " clip-rule="nonzero"/></clipPath><clipPath id="089217d58d"><path d="M 212.613281 6.578125 L 283.863281 6.578125 L 283.863281 30 L 212.613281 30 Z M 212.613281 6.578125 " clip-rule="nonzero"/></clipPath></defs><rect x="-38.4" width="460.8" fill="#ffffff" y="-9" height="107.999999" fill-opacity="1"/><rect x="-38.4" width="460.8" fill="#ffffff" y="-9" height="107.999999" fill-opacity="1"/><g clip-path="url(#6bbe3f10f8)"><path fill="#00b037" d="M 264.769531 87.226562 C 260.976562 82.058594 256.246094 77.976562 250.582031 74.984375 C 247.949219 73.601562 245.199219 72.507812 242.335938 71.710938 C 239.472656 70.914062 236.554688 70.425781 233.585938 70.25 C 230.617188 70.074219 227.664062 70.210938 224.726562 70.667969 C 221.785156 71.121094 218.929688 71.878906 216.152344 72.945312 C 216.824219 73.859375 217.53125 74.746094 218.273438 75.601562 C 219.019531 76.457031 219.796875 77.285156 220.605469 78.078125 C 221.417969 78.871094 222.257812 79.632812 223.132812 80.355469 C 224.003906 81.082031 224.90625 81.769531 225.835938 82.421875 C 226.765625 83.074219 227.71875 83.6875 228.695312 84.261719 C 229.675781 84.832031 230.675781 85.367188 231.699219 85.859375 C 232.722656 86.351562 233.761719 86.800781 234.820312 87.210938 C 235.882812 87.617188 236.957031 87.980469 238.042969 88.300781 C 239.132812 88.621094 240.234375 88.894531 241.34375 89.125 C 242.457031 89.355469 243.574219 89.539062 244.699219 89.679688 C 245.828125 89.816406 246.957031 89.910156 248.089844 89.957031 C 249.222656 90.003906 250.359375 90.003906 251.492188 89.960938 C 252.625 89.914062 253.757812 89.824219 254.882812 89.683594 C 256.007812 89.546875 257.128906 89.363281 258.238281 89.136719 C 259.351562 88.90625 260.453125 88.632812 261.539062 88.3125 C 262.628906 87.996094 263.703125 87.632812 264.765625 87.226562 Z M 264.769531 87.226562 " fill-opacity="1" fill-rule="evenodd"/></g><path fill="#00b037" d="M 264.75 87.195312 L 264.75 87.226562 C 268.117188 85.925781 271.261719 84.214844 274.1875 82.097656 C 277.113281 79.984375 279.722656 77.53125 282.011719 74.738281 C 279.722656 73.828125 277.371094 73.128906 274.960938 72.636719 C 272.546875 72.144531 270.109375 71.863281 267.648438 71.800781 C 265.183594 71.738281 262.734375 71.890625 260.300781 72.261719 C 257.867188 72.628906 255.480469 73.210938 253.148438 74 C 257.957031 77.570312 261.824219 81.96875 264.75 87.195312 Z M 264.75 87.195312 " fill-opacity="1" fill-rule="evenodd"/><g clip-path="url(#43036a1bf6)"><path fill="#ffffff" d="M 249.539062 89.988281 C 247.597656 87.6875 245.429688 85.617188 243.039062 83.785156 C 240.648438 81.953125 238.089844 80.402344 235.363281 79.125 C 232.632812 77.847656 229.800781 76.878906 226.859375 76.21875 C 223.921875 75.558594 220.945312 75.21875 217.933594 75.203125 L 218.203125 75.519531 C 220.761719 75.824219 223.269531 76.363281 225.730469 77.136719 C 228.191406 77.910156 230.558594 78.902344 232.832031 80.113281 C 235.105469 81.324219 237.25 82.738281 239.265625 84.347656 C 241.277344 85.960938 243.125 87.742188 244.804688 89.695312 C 244.976562 89.695312 245.148438 89.738281 245.328125 89.746094 C 245.507812 89.757812 245.757812 89.800781 245.976562 89.816406 C 246.917969 89.898438 247.871094 89.957031 248.832031 89.972656 C 249.066406 89.972656 249.300781 89.972656 249.539062 89.972656 Z M 249.539062 89.988281 " fill-opacity="1" fill-rule="evenodd"/></g><g clip-path="url(#0830a8d1c0)"><path fill="#ffffff" d="M 225.25 73.078125 C 228.285156 73.226562 231.265625 73.703125 234.199219 74.503906 C 237.128906 75.304688 239.9375 76.414062 242.625 77.832031 C 245.316406 79.246094 247.816406 80.9375 250.136719 82.902344 C 252.453125 84.867188 254.535156 87.058594 256.371094 89.476562 C 257.679688 89.273438 258.988281 89 260.226562 88.675781 C 258.277344 86.230469 256.074219 84.035156 253.628906 82.085938 C 251.179688 80.136719 248.546875 78.484375 245.726562 77.128906 C 242.90625 75.773438 239.972656 74.75 236.921875 74.054688 C 233.867188 73.363281 230.777344 73.019531 227.648438 73.023438 C 226.84375 73.023438 226.042969 73.023438 225.25 73.078125 Z M 225.25 73.078125 " fill-opacity="1" fill-rule="evenodd"/></g><path fill="#ffffff" d="M 258.921875 79.164062 C 263.101562 76.808594 267.558594 75.226562 272.292969 74.425781 C 267.132812 74.558594 262.171875 75.621094 257.410156 77.609375 C 257.925781 78.113281 258.429688 78.628906 258.921875 79.164062 Z M 258.921875 79.164062 " fill-opacity="1" fill-rule="evenodd"/><path fill="#ffffff" d="M 278.304688 77.570312 C 272.28125 77.726562 266.5625 79.128906 261.148438 81.78125 C 261.671875 82.414062 262.128906 83.066406 262.585938 83.726562 C 267.398438 80.585938 272.636719 78.53125 278.304688 77.570312 Z M 278.304688 77.570312 " fill-opacity="1" fill-rule="evenodd"/><g clip-path="url(#089217d58d)"><path fill="#00b037" d="M 250.226562 27.265625 C 262.042969 24.523438 271.789062 18.644531 283.808594 24.125 C 282.859375 22.789062 281.832031 21.511719 280.730469 20.292969 C 279.632812 19.078125 278.460938 17.929688 277.226562 16.851562 C 275.992188 15.769531 274.695312 14.769531 273.339844 13.84375 C 271.984375 12.917969 270.582031 12.074219 269.125 11.3125 C 267.671875 10.554688 266.179688 9.882812 264.644531 9.300781 C 263.109375 8.714844 261.546875 8.226562 259.957031 7.828125 C 258.363281 7.429688 256.753906 7.125 255.128906 6.914062 C 253.5 6.707031 251.867188 6.59375 250.226562 6.578125 L 249.796875 6.578125 C 247.894531 6.578125 246 6.707031 244.117188 6.964844 C 242.234375 7.222656 240.375 7.609375 238.546875 8.121094 C 236.714844 8.632812 234.925781 9.265625 233.183594 10.023438 C 231.4375 10.78125 229.753906 11.652344 228.128906 12.640625 C 226.503906 13.628906 224.953125 14.71875 223.476562 15.917969 C 222 17.117188 220.613281 18.414062 219.316406 19.800781 C 218.015625 21.191406 216.816406 22.660156 215.71875 24.214844 C 214.625 25.769531 213.636719 27.386719 212.761719 29.074219 C 212.761719 29.074219 216.421875 23.917969 222.996094 24.921875 C 226.851562 21.355469 235.09375 15.5625 249.089844 14.039062 C 249.089844 14.039062 234.707031 18.628906 227.707031 26.386719 C 236.371094 29.351562 243.628906 28.796875 250.226562 27.265625 Z M 250.226562 27.265625 " fill-opacity="1" fill-rule="evenodd"/></g><path fill="#ffffff" d="M 224.269531 18.613281 C 226.03125 17.074219 227.914062 15.707031 229.921875 14.511719 C 231.929688 13.316406 234.027344 12.308594 236.214844 11.492188 C 238.40625 10.675781 240.648438 10.0625 242.949219 9.652344 C 245.25 9.246094 247.570312 9.042969 249.90625 9.054688 C 253.667969 9.039062 257.355469 9.554688 260.96875 10.605469 C 264.578125 11.65625 267.96875 13.195312 271.136719 15.226562 C 268.121094 12.816406 264.792969 10.960938 261.15625 9.667969 C 257.515625 8.371094 253.765625 7.707031 249.90625 7.667969 L 249.53125 7.667969 C 247.160156 7.667969 244.820312 7.910156 242.5 8.390625 C 240.183594 8.871094 237.9375 9.582031 235.765625 10.523438 C 233.59375 11.464844 231.539062 12.617188 229.601562 13.976562 C 227.667969 15.339844 225.890625 16.886719 224.269531 18.613281 Z M 224.269531 18.613281 " fill-opacity="1" fill-rule="evenodd"/><path fill="#ffffff" d="M 231.324219 25.71875 C 235.40625 22.535156 239.910156 20.148438 244.835938 18.550781 C 246.601562 17.964844 248.394531 17.476562 250.214844 17.085938 C 248.429688 17.195312 246.667969 17.464844 244.929688 17.894531 C 243.195312 18.320312 241.511719 18.902344 239.878906 19.636719 C 238.246094 20.367188 236.691406 21.242188 235.21875 22.253906 C 233.742188 23.265625 232.371094 24.402344 231.101562 25.664062 Z M 231.324219 25.71875 " fill-opacity="1" fill-rule="evenodd"/><g fill="#181b13" fill-opacity="1"><g transform="translate(6.510156, 64.817126)"><g><path d="M 7 0 C 5.15625 -0.226562 3.804688 -1.046875 2.953125 -2.453125 C 2.109375 -3.867188 1.910156 -5.40625 2.359375 -7.0625 L 11.5 -41.421875 C 10.957031 -42.054688 10.53125 -42.796875 10.21875 -43.640625 C 9.90625 -44.492188 9.679688 -45.300781 9.546875 -46.0625 C 9.503906 -46.425781 9.601562 -46.726562 9.84375 -46.96875 C 10.09375 -47.21875 10.398438 -47.296875 10.765625 -47.203125 L 12.984375 -47.078125 L 14.796875 -47.078125 C 16.941406 -47.078125 18.722656 -47.164062 20.140625 -47.34375 C 21.554688 -47.519531 22.8125 -47.695312 23.90625 -47.875 C 25.007812 -48.0625 26.117188 -48.15625 27.234375 -48.15625 C 28.847656 -48.15625 30.082031 -47.640625 30.9375 -46.609375 C 31.789062 -45.578125 32.394531 -44.410156 32.75 -43.109375 C 32.84375 -42.742188 32.785156 -42.425781 32.578125 -42.15625 C 32.378906 -41.894531 32.097656 -41.765625 31.734375 -41.765625 L 27.4375 -41.625 C 26.445312 -41.582031 25.144531 -41.484375 23.53125 -41.328125 C 21.914062 -41.171875 20.328125 -40.976562 18.765625 -40.75 L 18.5625 -39.875 L 13.78125 -21.984375 L 17.34375 -22.390625 C 19.28125 -22.617188 20.894531 -22.257812 22.1875 -21.3125 C 23.488281 -20.375 24.140625 -19.144531 24.140625 -17.625 C 24.140625 -17.125 23.847656 -16.832031 23.265625 -16.75 L 12.171875 -15.734375 L 8.140625 -0.671875 C 8.003906 -0.128906 7.625 0.09375 7 0 Z M 7 0 "/></g></g></g><g fill="#181b13" fill-opacity="1"><g transform="translate(31.930791, 64.817126)"><g><path d="M 1.75 3.765625 C 0.351562 3.585938 -0.6875 2.78125 -1.375 1.34375 C -2.070312 -0.09375 -1.992188 -2.039062 -1.140625 -4.5 L 6.796875 -26.765625 C 5.941406 -27.929688 5.515625 -29.175781 5.515625 -30.5 C 5.515625 -31.820312 5.691406 -33.039062 6.046875 -34.15625 C 6.492188 -35.507812 7.109375 -36.632812 7.890625 -37.53125 C 8.679688 -38.425781 9.816406 -38.875 11.296875 -38.875 C 12.148438 -38.875 12.722656 -38.523438 13.015625 -37.828125 C 13.304688 -37.128906 13.40625 -36.285156 13.3125 -35.296875 C 13.226562 -34.316406 13.023438 -33.390625 12.703125 -32.515625 C 12.390625 -31.640625 12.054688 -31.023438 11.703125 -30.671875 C 11.972656 -30.710938 12.625 -31 13.65625 -31.53125 C 14.6875 -32.070312 15.847656 -32.613281 17.140625 -33.15625 C 18.441406 -33.695312 19.65625 -33.96875 20.78125 -33.96875 C 22.476562 -33.78125 23.582031 -32.976562 24.09375 -31.5625 C 24.613281 -30.15625 24.425781 -27.726562 23.53125 -24.28125 L 20.109375 -11.5625 C 19.390625 -9.007812 19.117188 -7.191406 19.296875 -6.109375 C 19.472656 -5.035156 20.238281 -4.5 21.59375 -4.5 C 22.300781 -4.5 23.101562 -4.703125 24 -5.109375 C 24.90625 -5.515625 25.847656 -6.445312 26.828125 -7.90625 C 27.816406 -9.363281 28.78125 -11.660156 29.71875 -14.796875 C 29.8125 -15.109375 29.992188 -15.175781 30.265625 -15 C 31.703125 -14.101562 32.21875 -12.957031 31.8125 -11.5625 C 30.644531 -7.488281 29.082031 -4.363281 27.125 -2.1875 C 25.175781 -0.0078125 22.546875 1.078125 19.234375 1.078125 C 16.097656 1.078125 14 -0.398438 12.9375 -3.359375 C 11.882812 -6.316406 12.097656 -10.238281 13.578125 -15.125 L 16.953125 -26.296875 C 17.085938 -26.785156 17.007812 -27.1875 16.71875 -27.5 C 16.425781 -27.8125 16.03125 -27.925781 15.53125 -27.84375 L 11.703125 -27.171875 L 2.421875 3.03125 C 2.242188 3.519531 2.019531 3.765625 1.75 3.765625 Z M 1.75 3.765625 "/></g></g></g><g fill="#181b13" fill-opacity="1"><g transform="translate(59.032677, 64.817126)"><g><path d="M 31.609375 -15 C 33.046875 -14.101562 33.5625 -12.957031 33.15625 -11.5625 C 32.03125 -7.75 30.078125 -4.6875 27.296875 -2.375 C 24.523438 -0.0703125 20.671875 1.078125 15.734375 1.078125 C 14.796875 1.078125 13.609375 0.953125 12.171875 0.703125 C 10.734375 0.460938 9.296875 -0.0351562 7.859375 -0.796875 C 6.429688 -1.566406 5.191406 -2.703125 4.140625 -4.203125 C 3.085938 -5.703125 2.4375 -7.707031 2.1875 -10.21875 C 1.9375 -12.726562 2.328125 -15.867188 3.359375 -19.640625 C 4.484375 -23.804688 5.960938 -27.03125 7.796875 -29.3125 C 9.640625 -31.601562 11.671875 -33.117188 13.890625 -33.859375 C 16.109375 -34.597656 18.382812 -34.65625 20.71875 -34.03125 C 22.957031 -34.113281 24.703125 -33.484375 25.953125 -32.140625 C 27.210938 -30.796875 27.894531 -29.035156 28 -26.859375 C 28.113281 -24.691406 27.566406 -22.375 26.359375 -19.90625 C 24.429688 -16.007812 22.109375 -13.332031 19.390625 -11.875 C 16.679688 -10.414062 14.003906 -9.910156 11.359375 -10.359375 C 11.046875 -10.441406 10.753906 -10.503906 10.484375 -10.546875 C 10.222656 -10.597656 9.976562 -10.644531 9.75 -10.6875 C 10.019531 -8.363281 10.925781 -6.75 12.46875 -5.84375 C 14.019531 -4.945312 15.894531 -4.5 18.09375 -4.5 C 19.707031 -4.5 21.34375 -4.703125 23 -5.109375 C 24.65625 -5.515625 26.1875 -6.429688 27.59375 -7.859375 C 29.007812 -9.296875 30.164062 -11.585938 31.0625 -14.734375 C 31.15625 -15.085938 31.335938 -15.175781 31.609375 -15 Z M 17.75 -30.59375 C 16.226562 -30.414062 14.960938 -29.335938 13.953125 -27.359375 C 12.941406 -25.390625 11.898438 -22.566406 10.828125 -18.890625 C 10.515625 -17.679688 10.242188 -16.539062 10.015625 -15.46875 C 12.171875 -15.332031 13.851562 -15.488281 15.0625 -15.9375 C 16.269531 -16.382812 17.265625 -17.132812 18.046875 -18.1875 C 18.835938 -19.238281 19.59375 -20.550781 20.3125 -22.125 C 21.34375 -24.632812 21.703125 -26.5625 21.390625 -27.90625 C 21.078125 -29.25 19.863281 -30.144531 17.75 -30.59375 Z M 17.75 -30.59375 "/></g></g></g><g fill="#181b13" fill-opacity="1"><g transform="translate(87.47958, 64.817126)"><g><path d="M 30.125 -15 C 31.5625 -14.101562 32.078125 -12.957031 31.671875 -11.5625 C 30.554688 -8.070312 29.007812 -5.414062 27.03125 -3.59375 C 25.0625 -1.78125 22.804688 -0.5625 20.265625 0.0625 C 17.734375 0.695312 15.015625 1.015625 12.109375 1.015625 C 7.085938 1.015625 3.21875 -0.171875 0.5 -2.546875 C -2.207031 -4.929688 -3.5625 -7.9375 -3.5625 -11.5625 C -3.5625 -13.351562 -3.144531 -14.6875 -2.3125 -15.5625 C -1.488281 -16.4375 -0.492188 -16.96875 0.671875 -17.15625 C 0.941406 -17.195312 1.175781 -17.113281 1.375 -16.90625 C 1.582031 -16.707031 1.707031 -16.453125 1.75 -16.140625 C 1.789062 -15.785156 1.8125 -15.414062 1.8125 -15.03125 C 1.8125 -14.644531 1.835938 -14.273438 1.890625 -13.921875 C 4.171875 -17.953125 6.039062 -21.253906 7.5 -23.828125 C 8.957031 -26.410156 10.097656 -28.5 10.921875 -30.09375 C 11.753906 -31.6875 12.347656 -33 12.703125 -34.03125 C 13.148438 -35.28125 13.773438 -36.285156 14.578125 -37.046875 C 15.390625 -37.816406 16.40625 -38.203125 17.625 -38.203125 C 18.789062 -38.203125 19.675781 -37.988281 20.28125 -37.5625 C 20.882812 -37.132812 21.070312 -36.335938 20.84375 -35.171875 C 20.707031 -34.492188 20.484375 -33.796875 20.171875 -33.078125 C 19.859375 -32.367188 19.410156 -31.632812 18.828125 -30.875 C 19.859375 -29.125 20.609375 -27.21875 21.078125 -25.15625 C 21.546875 -23.09375 21.847656 -21.097656 21.984375 -19.171875 C 22.117188 -17.242188 22.144531 -15.582031 22.0625 -14.1875 C 21.875 -11.457031 21.476562 -9.285156 20.875 -7.671875 C 20.269531 -6.054688 19.585938 -4.734375 18.828125 -3.703125 C 20.128906 -4.015625 21.472656 -4.59375 22.859375 -5.4375 C 24.253906 -6.289062 25.546875 -7.488281 26.734375 -9.03125 C 27.921875 -10.582031 28.875 -12.503906 29.59375 -14.796875 C 29.675781 -15.109375 29.851562 -15.175781 30.125 -15 Z M 8.546875 -2.953125 C 9.523438 -2.953125 10.472656 -3.46875 11.390625 -4.5 C 12.316406 -5.53125 13.132812 -6.929688 13.84375 -8.703125 C 14.5625 -10.472656 15.085938 -12.457031 15.421875 -14.65625 C 15.765625 -16.851562 15.859375 -19.128906 15.703125 -21.484375 C 15.546875 -23.835938 15.039062 -26.09375 14.1875 -28.25 L 2.953125 -7.46875 C 3.398438 -6.070312 4.0625 -4.96875 4.9375 -4.15625 C 5.8125 -3.351562 7.015625 -2.953125 8.546875 -2.953125 Z M 8.546875 -2.953125 "/></g></g></g><g fill="#181b13" fill-opacity="1"><g transform="translate(114.446971, 64.817126)"><g><path d="M 34.5625 -15 C 36 -14.144531 36.515625 -13 36.109375 -11.5625 C 34.859375 -7.75 33.28125 -4.6875 31.375 -2.375 C 29.46875 -0.0703125 26.851562 1.078125 23.53125 1.078125 C 21.15625 1.078125 19.316406 0.617188 18.015625 -0.296875 C 16.722656 -1.222656 16.050781 -2.863281 16 -5.21875 C 15.957031 -7.570312 16.585938 -10.875 17.890625 -15.125 L 21.859375 -28.25 C 21.992188 -28.644531 21.945312 -29.007812 21.71875 -29.34375 C 21.5 -29.6875 21.1875 -29.8125 20.78125 -29.71875 C 18.488281 -29.40625 16.503906 -28.015625 14.828125 -25.546875 C 13.148438 -23.085938 11.523438 -19.347656 9.953125 -14.328125 L 5.921875 0.265625 C 5.785156 0.847656 5.445312 1.097656 4.90625 1.015625 C 3.070312 0.691406 1.707031 -0.148438 0.8125 -1.515625 C -0.0820312 -2.878906 -0.304688 -4.414062 0.140625 -6.125 L 12.109375 -49.359375 C 12.285156 -49.898438 12.617188 -50.125 13.109375 -50.03125 C 14.859375 -49.8125 16.210938 -49.003906 17.171875 -47.609375 C 18.140625 -46.222656 18.378906 -44.65625 17.890625 -42.90625 L 14.734375 -31.546875 C 15.984375 -32.890625 17.46875 -33.835938 19.1875 -34.390625 C 20.914062 -34.953125 22.8125 -34.8125 24.875 -33.96875 C 26.675781 -33.832031 27.851562 -33.054688 28.40625 -31.640625 C 28.96875 -30.222656 28.78125 -27.769531 27.84375 -24.28125 L 24.40625 -11.5625 C 23.6875 -9.007812 23.414062 -7.191406 23.59375 -6.109375 C 23.78125 -5.035156 24.546875 -4.5 25.890625 -4.5 C 26.609375 -4.5 27.414062 -4.703125 28.3125 -5.109375 C 29.207031 -5.515625 30.144531 -6.445312 31.125 -7.90625 C 32.113281 -9.363281 33.082031 -11.660156 34.03125 -14.796875 C 34.113281 -15.109375 34.289062 -15.175781 34.5625 -15 Z M 34.5625 -15 "/></g></g></g><g fill="#181b13" fill-opacity="1"><g transform="translate(145.85288, 64.817126)"><g/></g></g><g fill="#181b13" fill-opacity="1"><g transform="translate(162.665471, 64.817126)"><g><path d="M 7 0 C 5.15625 -0.226562 3.804688 -1.046875 2.953125 -2.453125 C 2.109375 -3.867188 1.910156 -5.40625 2.359375 -7.0625 L 11.5 -41.421875 C 10.957031 -42.054688 10.53125 -42.796875 10.21875 -43.640625 C 9.90625 -44.492188 9.679688 -45.300781 9.546875 -46.0625 C 9.503906 -46.425781 9.601562 -46.726562 9.84375 -46.96875 C 10.09375 -47.21875 10.398438 -47.296875 10.765625 -47.203125 L 12.984375 -47.078125 L 14.796875 -47.078125 C 16.941406 -47.078125 18.722656 -47.164062 20.140625 -47.34375 C 21.554688 -47.519531 22.8125 -47.695312 23.90625 -47.875 C 25.007812 -48.0625 26.117188 -48.15625 27.234375 -48.15625 C 28.847656 -48.15625 30.082031 -47.640625 30.9375 -46.609375 C 31.789062 -45.578125 32.394531 -44.410156 32.75 -43.109375 C 32.84375 -42.742188 32.785156 -42.425781 32.578125 -42.15625 C 32.378906 -41.894531 32.097656 -41.765625 31.734375 -41.765625 L 27.4375 -41.625 C 26.445312 -41.582031 25.144531 -41.484375 23.53125 -41.328125 C 21.914062 -41.171875 20.328125 -40.976562 18.765625 -40.75 L 18.5625 -39.875 L 13.78125 -21.984375 L 17.34375 -22.390625 C 19.28125 -22.617188 20.894531 -22.257812 22.1875 -21.3125 C 23.488281 -20.375 24.140625 -19.144531 24.140625 -17.625 C 24.140625 -17.125 23.847656 -16.832031 23.265625 -16.75 L 12.171875 -15.734375 L 8.140625 -0.671875 C 8.003906 -0.128906 7.625 0.09375 7 0 Z M 7 0 "/></g></g></g><g fill="#181b13" fill-opacity="1"><g transform="translate(188.086106, 64.817126)"><g><path d="M 13.71875 -36.65625 L 12.640625 -36.984375 C 11.160156 -37.484375 10.050781 -38.359375 9.3125 -39.609375 C 8.570312 -40.867188 8.492188 -42.238281 9.078125 -43.71875 L 11.03125 -48.828125 C 11.207031 -49.316406 11.585938 -49.492188 12.171875 -49.359375 L 13.1875 -49.09375 C 14.75 -48.6875 15.898438 -47.84375 16.640625 -46.5625 C 17.378906 -45.289062 17.4375 -43.867188 16.8125 -42.296875 L 14.859375 -37.1875 C 14.585938 -36.695312 14.207031 -36.519531 13.71875 -36.65625 Z M 6.59375 1.078125 C 3.269531 1.078125 1.09375 -0.398438 0.0625 -3.359375 C -0.96875 -6.316406 -0.675781 -10.238281 0.9375 -15.125 C 1.96875 -18.175781 2.921875 -21.210938 3.796875 -24.234375 C 4.671875 -27.265625 5.554688 -30.28125 6.453125 -33.28125 C 6.585938 -33.738281 6.878906 -33.96875 7.328125 -33.96875 C 8.722656 -33.96875 9.84375 -33.675781 10.6875 -33.09375 C 11.539062 -32.507812 12.046875 -31.519531 12.203125 -30.125 C 12.359375 -28.738281 12.078125 -26.789062 11.359375 -24.28125 C 10.773438 -22.164062 10.144531 -20.046875 9.46875 -17.921875 C 8.800781 -15.796875 8.132812 -13.675781 7.46875 -11.5625 C 6.65625 -9.007812 6.359375 -7.191406 6.578125 -6.109375 C 6.804688 -5.035156 7.59375 -4.5 8.9375 -4.5 C 9.65625 -4.5 10.460938 -4.703125 11.359375 -5.109375 C 12.253906 -5.515625 13.195312 -6.429688 14.1875 -7.859375 C 15.175781 -9.296875 16.140625 -11.585938 17.078125 -14.734375 C 17.171875 -15.085938 17.351562 -15.175781 17.625 -15 C 19.050781 -14.007812 19.566406 -12.863281 19.171875 -11.5625 C 17.910156 -7.75 16.328125 -4.6875 14.421875 -2.375 C 12.515625 -0.0703125 9.90625 1.078125 6.59375 1.078125 Z M 6.59375 1.078125 "/></g></g></g><g fill="#181b13" fill-opacity="1"><g transform="translate(202.544929, 64.817126)"><g><path d="M 23.265625 1.078125 C 20.796875 1.078125 18.921875 0.617188 17.640625 -0.296875 C 16.367188 -1.222656 15.722656 -2.863281 15.703125 -5.21875 C 15.679688 -7.570312 16.320312 -10.875 17.625 -15.125 L 21.59375 -28.25 C 21.71875 -28.644531 21.554688 -29.007812 21.109375 -29.34375 C 20.660156 -29.6875 20.238281 -29.8125 19.84375 -29.71875 C 18.445312 -29.539062 17.15625 -28.945312 15.96875 -27.9375 C 14.78125 -26.925781 13.613281 -25.300781 12.46875 -23.0625 C 11.332031 -20.820312 10.179688 -17.816406 9.015625 -14.046875 C 7.847656 -10.285156 6.59375 -5.535156 5.25 0.203125 C 5.0625 0.828125 4.65625 1.070312 4.03125 0.9375 C 2.238281 0.625 0.914062 -0.210938 0.0625 -1.578125 C -0.78125 -2.941406 -0.976562 -4.457031 -0.53125 -6.125 L 7.671875 -33.96875 C 7.847656 -34.457031 8.179688 -34.703125 8.671875 -34.703125 C 9.972656 -34.660156 10.890625 -34.15625 11.421875 -33.1875 C 11.960938 -32.21875 12.328125 -31.109375 12.515625 -29.859375 C 13.804688 -32.140625 15.53125 -33.617188 17.6875 -34.296875 C 19.84375 -34.972656 22.148438 -34.863281 24.609375 -33.96875 C 26.398438 -33.832031 27.578125 -33.054688 28.140625 -31.640625 C 28.703125 -30.222656 28.515625 -27.769531 27.578125 -24.28125 L 24.140625 -11.5625 C 23.421875 -9.007812 23.148438 -7.191406 23.328125 -6.109375 C 23.515625 -5.035156 24.28125 -4.5 25.625 -4.5 C 26.34375 -4.5 27.148438 -4.703125 28.046875 -5.109375 C 28.941406 -5.515625 29.878906 -6.445312 30.859375 -7.90625 C 31.847656 -9.363281 32.816406 -11.660156 33.765625 -14.796875 C 33.847656 -15.109375 34.023438 -15.175781 34.296875 -15 C 35.734375 -14.101562 36.25 -12.957031 35.84375 -11.5625 C 34.59375 -7.53125 33.015625 -4.414062 31.109375 -2.21875 C 29.203125 -0.0195312 26.585938 1.078125 23.265625 1.078125 Z M 23.265625 1.078125 "/></g></g></g><g fill="#181b13" fill-opacity="1"><g transform="translate(233.681834, 64.817126)"><g><path d="M 35.578125 -15 C 37.015625 -14.101562 37.53125 -12.957031 37.125 -11.5625 C 35.863281 -7.75 34.28125 -4.6875 32.375 -2.375 C 30.46875 -0.0703125 27.859375 1.078125 24.546875 1.078125 C 22.484375 1.078125 20.832031 0.785156 19.59375 0.203125 C 18.363281 -0.378906 17.570312 -1.429688 17.21875 -2.953125 C 16.632812 -2.054688 16.003906 -1.328125 15.328125 -0.765625 C 14.660156 -0.210938 14.007812 0.0390625 13.375 0 C 10.195312 1.300781 7.597656 1.34375 5.578125 0.125 C 3.566406 -1.082031 2.3125 -3.285156 1.8125 -6.484375 C 1.320312 -9.691406 1.75 -13.582031 3.09375 -18.15625 C 4.125 -21.519531 5.378906 -24.445312 6.859375 -26.9375 C 8.335938 -29.425781 10.082031 -31.316406 12.09375 -32.609375 C 14.113281 -33.910156 16.40625 -34.453125 18.96875 -34.234375 C 19.863281 -34.453125 20.757812 -34.347656 21.65625 -33.921875 C 22.550781 -33.492188 23.289062 -32.765625 23.875 -31.734375 L 29.125 -49.421875 C 29.257812 -49.867188 29.550781 -50.09375 30 -50.09375 C 32.007812 -50.09375 33.363281 -49.398438 34.0625 -48.015625 C 34.757812 -46.628906 34.59375 -44.097656 33.5625 -40.421875 L 25.421875 -11.5625 C 24.703125 -8.96875 24.429688 -7.140625 24.609375 -6.078125 C 24.785156 -5.023438 25.550781 -4.5 26.90625 -4.5 C 27.613281 -4.5 28.414062 -4.703125 29.3125 -5.109375 C 30.21875 -5.515625 31.160156 -6.445312 32.140625 -7.90625 C 33.128906 -9.363281 34.09375 -11.660156 35.03125 -14.796875 C 35.125 -15.109375 35.304688 -15.175781 35.578125 -15 Z M 11.5 -3.4375 C 12.300781 -3.25 13.128906 -3.570312 13.984375 -4.40625 C 14.835938 -5.238281 15.644531 -6.378906 16.40625 -7.828125 C 17.164062 -9.285156 17.75 -10.847656 18.15625 -12.515625 C 18.25 -12.910156 18.363281 -13.332031 18.5 -13.78125 C 18.632812 -14.226562 18.765625 -14.675781 18.890625 -15.125 L 21.390625 -23.53125 C 21.835938 -25.507812 21.925781 -27.066406 21.65625 -28.203125 C 21.382812 -29.347656 20.625 -29.921875 19.375 -29.921875 C 17.84375 -29.921875 16.269531 -28.890625 14.65625 -26.828125 C 13.039062 -24.765625 11.585938 -21.601562 10.296875 -17.34375 C 9.660156 -15.195312 9.207031 -13.171875 8.9375 -11.265625 C 8.675781 -9.359375 8.734375 -7.71875 9.109375 -6.34375 C 9.492188 -4.976562 10.289062 -4.007812 11.5 -3.4375 Z M 11.5 -3.4375 "/></g></g></g></svg>